<?xml version="1.0" encoding="UTF-8" standalone="no"?>
<svg
   viewBox="0 0 210 297"
   width="210"
   height="297"
   version="1.1"
   id="svg2"
   sodipodi:docname="säbel.svg"
   xml:space="preserve"
   inkscape:version="1.4.3 (0d15f75, 2025-12-25)"
   xmlns:inkscape="http://www.inkscape.org/namespaces/inkscape"
   xmlns:sodipodi="http://sodipodi.sourceforge.net/DTD/sodipodi-0.dtd"
   xmlns="http://www.w3.org/2000/svg"
   xmlns:svg="http://www.w3.org/2000/svg"><defs
     id="defs2" /><sodipodi:namedview
     id="namedview2"
     pagecolor="#ffffff"
     bordercolor="#000000"
     borderopacity="0.25"
     inkscape:showpageshadow="2"
     inkscape:pageopacity="0.0"
     inkscape:pagecheckerboard="0"
     inkscape:deskcolor="#d1d1d1"
     inkscape:zoom="12.222222"
     inkscape:cx="153.16364"
     inkscape:cy="119.49545"
     inkscape:window-width="3840"
     inkscape:window-height="2054"
     inkscape:window-x="1609"
     inkscape:window-y="366"
     inkscape:window-maximized="1"
     inkscape:current-layer="svg2" /><rect
     width="210"
     height="297"
     fill="none"
     id="rect1" /><rect
     style="fill:#c87137;fill-opacity:1;stroke:#000000"
     id="rect4"
     width="14.809091"
     height="30.272728"
     x="227.9216"
     y="63.653515"
     rx="4.7966995"
     transform="rotate(24.344535)" /><path
     style="fill:#f1f4f9;stroke:#000000;stroke-width:1.16765;fill-opacity:1"
     id="path4"
     d="m 194.26011,164.67008 c 0.0285,-1.40159 0.0158,-2.08655 0.22909,-3.65321 0.28986,-2.12849 1.00699,-5.42051 1.42787,-7.43824 1.74165,-8.34969 0.32383,-1.39147 2.10035,-10.20855 1.23969,-5.54178 1.84902,-11.15035 2.03672,-16.76729 0.0595,-1.78111 0.0951,-3.56383 0.0382,-5.34499 -0.14125,-4.42932 -0.44919,-5.62597 -1.10523,-9.97309 -1.09921,-4.27246 -1.20756,-5.2917 -2.89171,-9.45411 -0.61681,-1.52446 -1.22607,-3.05779 -2.05885,-4.52114 -0.98819,-1.736394 -2.2346,-3.380442 -3.39098,-5.055147 -3.16371,-4.581738 -3.41313,-4.796424 -6.77495,-9.173954 -1.06151,-1.305326 -2.10007,-2.621702 -3.18453,-3.915979 -2.22474,-2.655207 -3.55438,-4.147216 -6.04512,-6.632079 -1.65718,-1.653265 -3.97427,-3.783018 -5.77707,-5.382239 -0.7827,-0.694315 -1.58789,-1.37366 -2.38183,-2.06049 -1.73808,-1.481841 -3.4992,-2.947569 -5.22697,-4.436452 0,0 -17.33331,-5.433035 -17.33331,-5.433035 v 0 c 2.63513,1.657198 5.22927,3.353392 7.71054,5.145109 2.69249,1.989336 3.66033,2.644749 6.25183,4.821737 5.16054,4.335098 9.77083,9.039963 14.09161,13.874677 2.83335,3.419403 4.74145,5.52421 7.09711,9.172127 0.98757,1.529336 1.836,3.109872 2.66995,4.691679 0.77803,1.475763 1.51511,2.965672 2.16408,4.477396 1.69394,3.94587 1.9415,5.31858 3.09751,9.37683 0.93973,4.4161 1.31621,5.55866 1.7266,10.07543 0.16346,1.79899 0.27863,3.60244 0.2788,5.40576 5.5e-4,5.54066 -0.83824,11.06239 -2.32504,16.48125 -1.54253,4.72416 -1.48266,5.07563 -3.58165,9.51957 -0.58586,1.24038 -1.23126,2.46472 -1.91417,3.67579 -1.09099,1.93475 -2.28381,3.86873 -4.16993,5.43389 z" /></svg>
